<svg width="24" height="24" viewBox="0 0 24 24" fill="none" xmlns="http://www.w3.org/2000/svg">
<path d="M21.3187 19.4023L15.232 13.3156C16.1766 12.0945 16.6875 10.6016 16.6875 9.03125C16.6875 7.15156 15.9539 5.38906 14.6273 4.06016C13.3008 2.73125 11.5336 2 9.65625 2C7.77891 2 6.01172 2.73359 4.68516 4.06016C3.35625 5.38672 2.625 7.15156 2.625 9.03125C2.625 10.9086 3.35859 12.6758 4.68516 14.0023C6.01172 15.3312 7.77656 16.0625 9.65625 16.0625C11.2266 16.0625 12.7172 15.5516 13.9383 14.6094L20.025 20.6937C20.0428 20.7116 20.064 20.7258 20.0874 20.7354C20.1107 20.7451 20.1357 20.7501 20.1609 20.7501C20.1862 20.7501 20.2112 20.7451 20.2345 20.7354C20.2578 20.7258 20.279 20.7116 20.2969 20.6937L21.3187 19.6742C21.3366 19.6564 21.3508 19.6352 21.3604 19.6119C21.3701 19.5885 21.3751 19.5635 21.3751 19.5383C21.3751 19.513 21.3701 19.488 21.3604 19.4647C21.3508 19.4414 21.3366 19.4202 21.3187 19.4023ZM13.3688 12.7438C12.375 13.7352 11.0578 14.2812 9.65625 14.2812C8.25469 14.2812 6.9375 13.7352 5.94375 12.7438C4.95234 11.75 4.40625 10.4328 4.40625 9.03125C4.40625 7.62969 4.95234 6.31016 5.94375 5.31875C6.9375 4.32734 8.25469 3.78125 9.65625 3.78125C11.0578 3.78125 12.3773 4.325 13.3688 5.31875C14.3602 6.3125 14.9062 7.62969 14.9062 9.03125C14.9062 10.4328 14.3602 11.7523 13.3688 12.7438Z" fill="white"/>
</svg>
