<svg width="25" height="25" viewBox="0 0 25 25" fill="none" xmlns="http://www.w3.org/2000/svg">
<path d="M19.1667 7.49996C20.0871 7.49996 20.8333 6.75377 20.8333 5.83329C20.8333 4.91282 20.0871 4.16663 19.1667 4.16663C18.2462 4.16663 17.5 4.91282 17.5 5.83329C17.5 6.75377 18.2462 7.49996 19.1667 7.49996Z" fill="white"/>
<path d="M12.5 5.83337C11.1815 5.83337 9.89257 6.22437 8.79624 6.95691C7.69991 7.68945 6.84543 8.73064 6.34085 9.94882C5.83626 11.167 5.70424 12.5074 5.96147 13.8006C6.21871 15.0938 6.85365 16.2817 7.786 17.2141C8.71835 18.1464 9.90623 18.7814 11.1994 19.0386C12.4926 19.2958 13.8331 19.1638 15.0513 18.6592C16.2694 18.1546 17.3106 17.3002 18.0432 16.2038C18.7757 15.1075 19.1667 13.8186 19.1667 12.5C19.1667 10.7319 18.4643 9.03624 17.2141 7.78599C15.9638 6.53575 14.2682 5.83337 12.5 5.83337ZM12.5 16.8276C11.6441 16.8276 10.8074 16.5738 10.0958 16.0983C9.38409 15.6228 8.82941 14.9469 8.50186 14.1561C8.17432 13.3654 8.08862 12.4952 8.2556 11.6558C8.42258 10.8163 8.83474 10.0452 9.43997 9.43996C10.0452 8.83474 10.8163 8.42257 11.6558 8.25559C12.4952 8.08861 13.3654 8.17431 14.1561 8.50186C14.9469 8.8294 15.6228 9.38408 16.0983 10.0958C16.5738 10.8074 16.8276 11.6441 16.8276 12.5C16.8276 13.6478 16.3717 14.7485 15.5601 15.5601C14.7485 16.3717 13.6478 16.8276 12.5 16.8276Z" fill="white"/>
<path d="M12.5 2.25208C15.8375 2.25208 16.2333 2.26458 17.551 2.325C18.3436 2.33441 19.1286 2.47993 19.8719 2.75521C20.4111 2.96322 20.9008 3.28182 21.3095 3.6905C21.7182 4.09918 22.0368 4.58889 22.2448 5.12813C22.5201 5.87138 22.6656 6.65642 22.675 7.44896C22.7354 8.76667 22.7479 9.1625 22.7479 12.501C22.7479 15.8396 22.7354 16.2333 22.675 17.551C22.6656 18.3436 22.5201 19.1286 22.2448 19.8719C22.0368 20.4111 21.7182 20.9008 21.3095 21.3095C20.9008 21.7182 20.4111 22.0368 19.8719 22.2448C19.1286 22.5201 18.3436 22.6656 17.551 22.675C16.2333 22.7354 15.8375 22.7479 12.5 22.7479C9.1625 22.7479 8.76667 22.7354 7.44896 22.675C6.65642 22.6656 5.87138 22.5201 5.12813 22.2448C4.58889 22.0368 4.09918 21.7182 3.6905 21.3095C3.28182 20.9008 2.96322 20.4111 2.75521 19.8719C2.47993 19.1286 2.33441 18.3436 2.325 17.551C2.26458 16.2333 2.25208 15.8375 2.25208 12.5C2.25208 9.1625 2.26458 8.76667 2.325 7.44896C2.33441 6.65642 2.47993 5.87138 2.75521 5.12813C2.96322 4.58889 3.28182 4.09918 3.6905 3.6905C4.09918 3.28182 4.58889 2.96322 5.12813 2.75521C5.87138 2.47993 6.65642 2.33441 7.44896 2.325C8.76667 2.26458 9.1625 2.25208 12.5 2.25208ZM12.5 0C9.10521 0 8.67917 0.0145834 7.34583 0.075C6.30914 0.0959334 5.2835 0.292468 4.3125 0.65625C3.482 0.977393 2.72777 1.46852 2.09814 2.09814C1.46852 2.72777 0.977393 3.482 0.65625 4.3125C0.292353 5.28383 0.095816 6.30983 0.075 7.34688C0.0145834 8.68021 0 9.10417 0 12.5C0 15.8958 0.0145834 16.3208 0.075 17.6542C0.0959334 18.6909 0.292468 19.7165 0.65625 20.6875C0.977393 21.518 1.46852 22.2722 2.09814 22.9019C2.72777 23.5315 3.482 24.0226 4.3125 24.3438C5.28383 24.7076 6.30983 24.9042 7.34688 24.925C8.68021 24.9854 9.10521 25 12.5 25C15.8948 25 16.3208 24.9854 17.6542 24.925C18.6912 24.9042 19.7172 24.7076 20.6885 24.3438C21.519 24.0226 22.2733 23.5315 22.9029 22.9019C23.5325 22.2722 24.0236 21.518 24.3448 20.6875C24.7083 19.7161 24.9045 18.6901 24.925 17.6531C24.9854 16.3198 25 15.8958 25 12.5C25 9.10417 24.9854 8.67917 24.925 7.34583C24.9041 6.30914 24.7075 5.2835 24.3438 4.3125C24.0226 3.482 23.5315 2.72777 22.9019 2.09814C22.2722 1.46852 21.518 0.977393 20.6875 0.65625C19.7161 0.292708 18.6901 0.0965241 17.6531 0.0760416C16.3198 0.0135416 15.8958 0 12.5 0Z" fill="white"/>
</svg>
