<svg width="20" height="19" viewBox="0 0 20 19" fill="none" xmlns="http://www.w3.org/2000/svg">
<path d="M19.3187 17.4023L13.232 11.3156C14.1766 10.0945 14.6875 8.60156 14.6875 7.03125C14.6875 5.15156 13.9539 3.38906 12.6273 2.06016C11.3008 0.73125 9.53359 0 7.65625 0C5.77891 0 4.01172 0.733594 2.68516 2.06016C1.35625 3.38672 0.625 5.15156 0.625 7.03125C0.625 8.90859 1.35859 10.6758 2.68516 12.0023C4.01172 13.3312 5.77656 14.0625 7.65625 14.0625C9.22656 14.0625 10.7172 13.5516 11.9383 12.6094L18.025 18.6937C18.0428 18.7116 18.064 18.7258 18.0874 18.7354C18.1107 18.7451 18.1357 18.7501 18.1609 18.7501C18.1862 18.7501 18.2112 18.7451 18.2345 18.7354C18.2578 18.7258 18.279 18.7116 18.2969 18.6937L19.3187 17.6742C19.3366 17.6564 19.3508 17.6352 19.3604 17.6119C19.3701 17.5885 19.3751 17.5635 19.3751 17.5383C19.3751 17.513 19.3701 17.488 19.3604 17.4647C19.3508 17.4414 19.3366 17.4202 19.3187 17.4023ZM11.3688 10.7438C10.375 11.7352 9.05781 12.2812 7.65625 12.2812C6.25469 12.2812 4.9375 11.7352 3.94375 10.7438C2.95234 9.75 2.40625 8.43281 2.40625 7.03125C2.40625 5.62969 2.95234 4.31016 3.94375 3.31875C4.9375 2.32734 6.25469 1.78125 7.65625 1.78125C9.05781 1.78125 10.3773 2.325 11.3688 3.31875C12.3602 4.3125 12.9062 5.62969 12.9062 7.03125C12.9062 8.43281 12.3602 9.75234 11.3688 10.7438Z" fill="white"/>
</svg>
